<svg id="Ebene_1" data-name="Ebene 1" xmlns="http://www.w3.org/2000/svg" viewBox="0 0 24 24"><defs><style>.cls-1{fill:#242422;}.cls-2{fill:none;}</style></defs><title>icon_</title><path class="cls-1" d="M10.71,20.32a1,1,0,0,1-1.42,0l-6.9-6.9a2,2,0,0,1,0-2.83l6.9-6.9A1,1,0,1,1,10.71,5.1L3.8,12l6.91,6.9A1,1,0,0,1,10.71,20.32Z"/><path class="cls-1" d="M21.71,20.32a1,1,0,0,1-1.42,0l-6.9-6.9a2,2,0,0,1,0-2.83l6.9-6.9A1,1,0,1,1,21.71,5.1L14.8,12l6.91,6.9A1,1,0,0,1,21.71,20.32Z"/><rect class="cls-2" width="24" height="24"/></svg>