<svg id="Ebene_1" data-name="Ebene 1" xmlns="http://www.w3.org/2000/svg" viewBox="0 0 24 24"><defs><style>.cls-1{fill:#242422;}.cls-2{fill:none;}</style></defs><title>icon_</title><rect class="cls-1" x="11.25" y="1.24" width="2" height="21.51" rx="1" ry="1" transform="translate(12.07 -5.15) rotate(45)"/><path class="cls-1" d="M17,12.78h0a1,1,0,0,1,1,1v7a0,0,0,0,1,0,0H16a0,0,0,0,1,0,0v-7a1,1,0,0,1,1-1Z" transform="translate(40.93 16.6) rotate(135)"/><path class="cls-1" d="M6.47,3.22h2a0,0,0,0,1,0,0v7a1,1,0,0,1-1,1h0a1,1,0,0,1-1-1v-7a0,0,0,0,1,0,0Z" transform="translate(17.86 7.05) rotate(135)"/><rect class="cls-2" width="24" height="24"/></svg>